<?xml version="1.0" encoding="UTF-8" standalone="no"?>
<!-- Created with Inkscape (http://www.inkscape.org/) -->

<svg
   width="512"
   height="512"
   viewBox="0 0 512 512"
   version="1.1"
   id="svg5"
   inkscape:version="1.2.2 (732a01da63, 2022-12-09)"
   sodipodi:docname="maquina-de-batata.svg"
   inkscape:export-filename="maquina-de-batata.png"
   inkscape:export-xdpi="96"
   inkscape:export-ydpi="96"
   xmlns:inkscape="http://www.inkscape.org/namespaces/inkscape"
   xmlns:sodipodi="http://sodipodi.sourceforge.net/DTD/sodipodi-0.dtd"
   xmlns="http://www.w3.org/2000/svg"
   xmlns:svg="http://www.w3.org/2000/svg">
  <sodipodi:namedview
     id="namedview7"
     pagecolor="#ffffff"
     bordercolor="#000000"
     borderopacity="0.25"
     inkscape:showpageshadow="2"
     inkscape:pageopacity="0.0"
     inkscape:pagecheckerboard="0"
     inkscape:deskcolor="#d1d1d1"
     inkscape:document-units="px"
     showgrid="false"
     showguides="true"
     inkscape:zoom="1.5241695"
     inkscape:cx="149.26161"
     inkscape:cy="227.33692"
     inkscape:window-width="1920"
     inkscape:window-height="1001"
     inkscape:window-x="-9"
     inkscape:window-y="-9"
     inkscape:window-maximized="1"
     inkscape:current-layer="g21943" />
  <defs
     id="defs2" />
  <g
     inkscape:label="tudo"
     inkscape:groupmode="layer"
     id="layer1">
    <g
       id="g21943"
       inkscape:label="maquina">
      <rect
         style="fill:#6de51b;fill-opacity:1;stroke:#000000;stroke-width:2.84264;stroke-dasharray:none;stroke-opacity:1"
         id="rect788"
         width="354.47644"
         height="158.30406"
         x="35.091831"
         y="190.92392"
         rx="50"
         ry="50" />
      <text
         xml:space="preserve"
         style="font-size:9.94614px;fill:#6de51b;fill-opacity:1;stroke-width:0.828845"
         x="131.33527"
         y="265.57748"
         id="text5996"><tspan
           sodipodi:role="line"
           id="tspan5994"
           x="131.33527"
           y="265.57748"
           style="font-style:normal;font-variant:normal;font-weight:normal;font-stretch:normal;font-size:26.523px;font-family:sans-serif;-inkscape-font-specification:'sans-serif, Normal';font-variant-ligatures:normal;font-variant-caps:normal;font-variant-numeric:normal;font-variant-east-asian:normal;fill:#000000;stroke-width:0.828845">Máquina de </tspan><tspan
           sodipodi:role="line"
           x="131.33527"
           y="298.73123"
           style="font-style:normal;font-variant:normal;font-weight:normal;font-stretch:normal;font-size:26.523px;font-family:sans-serif;-inkscape-font-specification:'sans-serif, Normal';font-variant-ligatures:normal;font-variant-caps:normal;font-variant-numeric:normal;font-variant-east-asian:normal;fill:#000000;stroke-width:0.828845"
           id="tspan6100">Batata Frita</tspan></text>
      <path
         id="rect31514"
         style="fill:#1a1a1a;stroke:#000000;stroke-width:0"
         d="m 100.39415,149.54725 h 35.11198 c 5.54,0 12.04163,0.84991 10,6 l -21.87259,33.44003 c -3.64622,7.12212 -1.11907,17.26865 -5.32568,17.44263 -5.54,0 -2.28961,-9.89088 -6.41891,-17.36062 L 90.394147,155.54725 c -2.04162,-5.15009 4.46,-6 10.000003,-6 z"
         sodipodi:nodetypes="cccccccc" />
      <path
         id="path31569"
         style="fill:#1a1a1a;stroke:#000000;stroke-width:0"
         d="m 194.39415,149.54725 h 35.11198 c 5.54,0 12.04163,0.84991 10,6 l -21.87259,33.44003 c -3.64622,7.12212 -1.11907,17.26865 -5.32568,17.44263 -5.54,0 -2.28961,-9.89088 -6.41891,-17.36062 l -21.4948,-33.52204 c -2.04162,-5.15009 4.46,-6 10,-6 z"
         sodipodi:nodetypes="cccccccc" />
      <path
         id="path31571"
         style="fill:#1a1a1a;stroke:#000000;stroke-width:0"
         d="m 288.39415,149.54725 h 35.11198 c 5.54,0 12.04163,0.84991 10,6 l -21.87259,33.44003 c -3.64622,7.12212 -1.11907,17.26865 -5.32568,17.44263 -5.54,0 -2.28961,-9.89088 -6.41891,-17.36062 l -21.4948,-33.52204 c -2.04162,-5.15009 4.46,-6 10,-6 z"
         sodipodi:nodetypes="cccccccc" />
      <path
         style="fill:#1a1a1a;fill-opacity:1;stroke:#000000;stroke-width:0;stroke-linecap:round;stroke-linejoin:round;stroke-dasharray:none;stroke-opacity:1"
         d="m 331.13052,338.56306 c 2.7413,20.68189 1.98208,41.56183 -20.50296,43.13824 -33.83748,-0.36772 -43.78876,1.8189 -49.86322,-15.9103 -4.82075,22.69474 -1.0592,47.13041 -2.13231,70.20217 18.22736,-18.34635 32.83315,-12.97082 56.91624,-30.18037 24.72945,-19.34073 24.48046,-48.1207 20.0109,-68.23388 -1.64024,-0.6561 -3.19847,-0.6561 -4.42865,0.98414 z"
         id="path32355"
         sodipodi:nodetypes="ccccccc" />
      <path
         id="rect32412"
         style="fill:#999999;stroke:#000000;stroke-width:3.05567;stroke-linecap:round;stroke-linejoin:round;stroke-dasharray:none"
         d="m 385.75519,329.68277 10e-6,-117.19995 c 86.97295,34.13915 50.05003,107.04881 -10e-6,117.19995 z"
         sodipodi:nodetypes="ccc" />
      <rect
         style="fill:#808080;fill-opacity:1;stroke:#000000;stroke-width:3;stroke-linecap:round;stroke-linejoin:round;stroke-dasharray:none;stroke-opacity:1"
         id="rect32358"
         width="100"
         height="10"
         x="9.3439674"
         y="472.27951"
         transform="rotate(-58.280803)" />
      <path
         id="path32415"
         style="fill:#b3b3b3;stroke:#000000;stroke-width:3.14985;stroke-linecap:round;stroke-linejoin:round;stroke-dasharray:none"
         d="m 376.98756,332.65116 2e-5,-124.76051 c 86.81644,36.34149 49.95996,113.95453 -2e-5,124.76051 z"
         sodipodi:nodetypes="ccc" />
      <ellipse
         style="fill:#ff0000;fill-opacity:1;stroke:#000000;stroke-width:1;stroke-linecap:round;stroke-linejoin:round;stroke-dasharray:none;stroke-opacity:1"
         id="path33620"
         cx="235.68393"
         cy="-386.91315"
         rx="4.2913451"
         ry="4.4073277"
         transform="rotate(90)" />
      <ellipse
         style="fill:#00ff00;fill-opacity:1;stroke:#000000;stroke-width:1;stroke-linecap:round;stroke-linejoin:round;stroke-dasharray:none;stroke-opacity:1"
         id="ellipse33622"
         cx="313.07913"
         cy="-390.00146"
         rx="4.2913451"
         ry="4.4073277"
         transform="rotate(90)" />
      <circle
         style="fill:#000000;fill-opacity:1;stroke:#000000;stroke-width:3;stroke-linecap:round;stroke-linejoin:round;stroke-dasharray:none;stroke-opacity:1"
         id="path33676"
         cx="464.61038"
         cy="153.13477"
         r="15" />
    </g>
    <g
       id="g21959"
       inkscape:label="batata"
       transform="translate(-80.733108,-17.040427)">
      <rect
         style="fill:#ffff00;fill-opacity:1;stroke:#000000;stroke-width:2.17883;stroke-dasharray:none;stroke-opacity:1"
         id="rect6321"
         width="9.5933056"
         height="49.336998"
         x="41.864239"
         y="439.67517"
         transform="rotate(-23.254825)" />
      <rect
         style="fill:#ffff00;fill-opacity:1;stroke:#000000;stroke-width:2.17883;stroke-dasharray:none;stroke-opacity:1"
         id="rect6323"
         width="9.5933056"
         height="49.336998"
         x="94.16893"
         y="434.65778"
         transform="rotate(-18.135671)" />
      <rect
         style="fill:#ffff00;fill-opacity:1;stroke:#000000;stroke-width:2.17883;stroke-dasharray:none;stroke-opacity:1"
         id="rect6325"
         width="9.5933056"
         height="49.336998"
         x="148.72742"
         y="422.92169"
         transform="rotate(-12.64577)" />
      <rect
         style="fill:#ffff00;fill-opacity:1;stroke:#000000;stroke-width:2.17883;stroke-dasharray:none;stroke-opacity:1"
         id="rect6327"
         width="9.5933056"
         height="49.336998"
         x="334.18356"
         y="319.78598"
         transform="rotate(10.982812)" />
      <rect
         style="fill:#ffff00;fill-opacity:1;stroke:#000000;stroke-width:2.17883;stroke-dasharray:none;stroke-opacity:1"
         id="rect6313"
         width="9.5933056"
         height="49.336998"
         x="194.44978"
         y="404.91815"
         transform="rotate(-7.2131818)" />
      <rect
         style="fill:#ffff00;fill-opacity:1;stroke:#000000;stroke-width:2.17883;stroke-dasharray:none;stroke-opacity:1"
         id="rect6315"
         width="9.5933056"
         height="49.336998"
         x="239.2758"
         y="388.46725"
         transform="rotate(-2.0940281)" />
      <rect
         style="fill:#ffff00;fill-opacity:1;stroke:#000000;stroke-width:2.17883;stroke-dasharray:none;stroke-opacity:1"
         id="rect6317"
         width="9.5933056"
         height="49.336998"
         x="292.80051"
         y="363.01865"
         transform="rotate(3.3958724)" />
      <rect
         style="fill:#ffff00;fill-opacity:1;stroke:#000000;stroke-width:2.17883;stroke-dasharray:none;stroke-opacity:1"
         id="rect6319"
         width="9.5933056"
         height="49.336998"
         x="428.46945"
         y="210.60103"
         transform="rotate(27.024455)" />
      <rect
         style="fill:#ffff00;fill-opacity:1;stroke:#000000;stroke-width:3;stroke-dasharray:none;stroke-opacity:1"
         id="rect6253"
         width="13.208845"
         height="67.931206"
         x="45.362041"
         y="447.69464"
         transform="rotate(-21.960345)" />
      <rect
         style="fill:#ffff00;fill-opacity:1;stroke:#000000;stroke-width:3;stroke-dasharray:none;stroke-opacity:1"
         id="rect6307"
         width="13.208845"
         height="67.931206"
         x="142.32016"
         y="435.82999"
         transform="rotate(-12.98681)" />
      <rect
         style="fill:#ffff00;fill-opacity:1;stroke:#000000;stroke-width:3;stroke-dasharray:none;stroke-opacity:1"
         id="rect6309"
         width="13.208845"
         height="67.931206"
         x="278.13959"
         y="373.83411"
         transform="rotate(3.3958724)" />
      <rect
         style="fill:#ffff00;fill-opacity:1;stroke:#000000;stroke-width:3;stroke-dasharray:none;stroke-opacity:1"
         id="rect6311"
         width="13.208845"
         height="67.931206"
         x="436.67166"
         y="218.88362"
         transform="rotate(27.024455)" />
      <path
         id="rect6154"
         style="fill:#ff0000;stroke:#000000;stroke-width:3.29571;stroke-dasharray:none;stroke-opacity:1"
         d="m 208.25142,413.05311 23.56649,0.0952 c 16.63885,32.7705 38.14896,17.0604 47.13298,0.19047 l 23.56649,0.0952 -23.56775,79.37909 h -51.32745 z"
         sodipodi:nodetypes="ccccccc" />
      <path
         d="m 250.78399,441.18868 c 5.50864,-0.71582 9.84916,4.34097 7.4406,9.56827 -0.58739,1.27454 -4.54321,3.80571 -2.77244,5.14707 1.01739,0.77072 2.72352,0.76475 3.92292,0.59308 2.68042,-0.38383 5.44529,-0.9124 7.57179,-2.72614 0.82301,-0.70198 2.57456,-3.89831 3.77236,-3.482 0.74756,0.25991 1.19008,1.40224 1.46791,2.06972 0.84367,2.02705 1.45436,4.34781 1.45785,6.55251 0.004,2.05894 -0.11691,3.99892 -0.77989,5.97007 -1.83469,5.45591 -6.97129,8.06163 -12.32512,8.9915 -5.1363,0.89201 -11.00954,0.81353 -15.72604,-1.65807 -3.35182,-1.75651 -5.891,-5.12757 -5.50847,-9.08077 0.21579,-2.23091 1.29564,-4.19695 2.82573,-5.7997 0.83537,-0.87498 2.71973,-1.88639 2.78132,-3.2282 0.0653,-1.41797 -1.73525,-1.50169 -2.71958,-1.69084 -1.752,-0.33666 -3.31019,-1.30512 -3.79653,-3.11434 -0.57167,-2.1271 2.8914,-0.99219 4.23336,-1.7335 1.48916,-0.82271 2.05778,-2.54864 3.10531,-3.79959 1.22358,-1.46121 3.1803,-2.33619 5.04892,-2.57907 z"
         style="fill:#ffffff;stroke:none;stroke-width:0.0385264"
         id="path999" />
    </g>
    <g
       id="g21937"
       transform="translate(-128.11251,-10.357252)"
       inkscape:label="oleo">
      <rect
         style="fill:#ffd42a;fill-opacity:1;stroke:#000000;stroke-width:3;stroke-dasharray:none;stroke-opacity:1"
         id="rect10071"
         width="50"
         height="50"
         x="218.97459"
         y="100.67264"
         rx="10"
         ry="10" />
      <rect
         style="fill:#ffd42a;fill-opacity:1;stroke:#000000;stroke-width:3;stroke-dasharray:none;stroke-opacity:1"
         id="rect11629"
         width="41.607624"
         height="6.9870191"
         x="223.25352"
         y="93.992737"
         rx="3"
         ry="3" />
      <rect
         style="fill:#ffd42a;fill-opacity:1;stroke:#000000;stroke-width:3;stroke-dasharray:none;stroke-opacity:1"
         id="rect13087"
         width="41.607624"
         height="6.9870191"
         x="223.49956"
         y="86.812859"
         rx="3"
         ry="3" />
      <rect
         style="fill:#ffffff;fill-opacity:0;stroke:#000000;stroke-width:3;stroke-dasharray:none;stroke-opacity:1"
         id="rect13089"
         width="41.607624"
         height="6.9870191"
         x="223.61554"
         y="79.972679"
         rx="3"
         ry="3" />
      <path
         id="rect19010"
         style="fill:#ffffff;fill-opacity:0;stroke:#000000;stroke-width:3;stroke-dasharray:none"
         d="m 238.09613,56.48616 14.35629,-0.115982 c 2.42206,4.987239 14.53885,6.982495 17.20644,13.579911 0.38371,3.948845 -0.14089,7.414374 -5,8.56993 h -39.64043 c -5.09278,-1.007653 -6.39179,-4.81029 -5,-8.56993 2.43563,-6.597416 15.42368,-8.47669 18.0777,-13.463929 z"
         sodipodi:nodetypes="ccccccc" />
      <rect
         style="fill:#333333;fill-opacity:1;stroke:#000000;stroke-width:3;stroke-dasharray:none;stroke-opacity:1"
         id="rect20465"
         width="17.878588"
         height="12.465805"
         x="236.03017"
         y="43.302269"
         rx="3"
         ry="3" />
      <path
         id="path21193"
         style="fill:#816e23;fill-opacity:0.74477;stroke:#000000;stroke-width:3;stroke-dasharray:none"
         d="m 248.06552,132.91813 c 0,3.62063 -2.80229,5.40849 -4.89763,5.40849 -2.09533,0 -5.03559,-2.03369 -5.03559,-5.65433 0,-3.62063 4.80274,-6.22795 5.79438,-12.94759 0.16387,8.03079 4.13884,9.5728 4.13884,13.19343 z"
         sodipodi:nodetypes="ccccc" />
    </g>
    <g
       id="g24393"
       inkscape:label="batata"
       transform="translate(-15.21452,7.066236)">
      <path
         id="path22021"
         style="fill:#ad933a;fill-opacity:1;stroke:#000000;stroke-width:3"
         d="m 247.27428,94.177635 c 10.16947,17.473425 -11.09013,46.271525 -28.06772,37.578265 -16.15747,-10.98959 -25.44334,-19.12069 -28.06772,-37.578265 -2.62438,-25.018521 12.56635,-37.578267 28.06772,-37.578266 15.50137,-1e-6 19.70251,19.120695 28.06772,37.578266 z"
         sodipodi:nodetypes="ccccc" />
      <ellipse
         style="fill:#554400;fill-opacity:1;stroke:#000000;stroke-width:1;stroke-dasharray:none;stroke-opacity:1"
         id="path23483"
         cx="217.46683"
         cy="94.177635"
         rx="2.5516107"
         ry="2.4356284" />
      <ellipse
         style="fill:#806600;fill-opacity:1;stroke:#000000;stroke-width:1;stroke-dasharray:none;stroke-opacity:1"
         id="path23485"
         cx="217.46683"
         cy="110.58913"
         rx="1.9716992"
         ry="2.2616549" />
      <ellipse
         style="fill:#554400;fill-opacity:1;stroke:#000000;stroke-width:1;stroke-dasharray:none;stroke-opacity:1"
         id="path23487"
         cx="236.25595"
         cy="109.89323"
         rx="1.8557168"
         ry="3.6534426" />
      <ellipse
         style="fill:#806600;fill-opacity:1;stroke:#000000;stroke-width:1;stroke-dasharray:none;stroke-opacity:1"
         id="path23489"
         cx="238.28564"
         cy="95.163483"
         rx="2.9575489"
         ry="2.2616549" />
      <ellipse
         style="fill:#554400;fill-opacity:1;stroke:#000000;stroke-width:1;stroke-dasharray:none;stroke-opacity:1"
         id="path23491"
         cx="201.22929"
         cy="90.872139"
         rx="1.6237522"
         ry="4.0013895" />
      <ellipse
         style="fill:#806600;fill-opacity:1;stroke:#000000;stroke-width:1;stroke-dasharray:none;stroke-opacity:1"
         id="path23493"
         cx="208.59418"
         cy="71.735054"
         rx="2.2616549"
         ry="3.5374603" />
      <path
         style="fill:#1a1a1a;fill-opacity:0.42887;stroke:#000000;stroke-width:0;stroke-dasharray:none;stroke-opacity:1"
         d="m 196.93796,108.7914 c 17.86668,17.21294 30.45895,18.9794 46.22547,14.47789 -9.86095,8.88123 -14.4879,11.32863 -26.01883,7.48499 -9.80735,-5.76284 -14.17912,-12.68976 -20.20664,-21.96288 z"
         id="path24275"
         sodipodi:nodetypes="cccc" />
    </g>
    <g
       id="g31450"
       inkscape:label="sal"
       transform="translate(-25.945176,11.202971)">
      <path
         id="rect24447"
         style="fill:#ffffff;stroke:#000000;stroke-width:3"
         d="m 325.86365,71.733665 h 12 c 1.24106,2.050297 3.49106,1.384797 5.43079,2.414473 1.93974,1.029675 4.43908,10.682385 0.95961,12.615217 2.43563,3.684061 2.6096,23.318465 2.6096,39.992545 0,1.662 -1.338,3 -3,3 h -24 c -1.662,0 -3,-1.338 -3,-3 0,-16.67408 -1.3338,-35.786564 2.6096,-40.050536 -2.72558,-1.410911 -1.88105,-11.387548 0.65206,-12.434209 1.83722,-0.988669 3.33334,-0.671116 5.73834,-2.53749 z"
         sodipodi:nodetypes="ccccccccccc" />
      <path
         id="rect25902"
         style="fill:#b3b3b3;stroke:#000000;stroke-width:3"
         d="m 323.57507,59.614906 c 5.65483,0 11.30967,0 16.9645,0 1.662,0 4.85572,1.511973 3,3 -1.73973,2.214024 0,4.196083 0,6.294125 0,1.662 -1.338,3 -3,3 -5.65483,0 -11.30967,0 -16.9645,0 -1.662,0 -3,-1.338 -3,-3 0,-2.098042 1.68174,-3.906128 0,-6.294125 -1.27581,-1.951956 1.338,-3 3,-3 z"
         sodipodi:nodetypes="ccccccccc" />
      <text
         xml:space="preserve"
         style="font-style:normal;font-variant:normal;font-weight:normal;font-stretch:normal;font-size:32px;font-family:sans-serif;-inkscape-font-specification:'sans-serif, Normal';font-variant-ligatures:normal;font-variant-caps:normal;font-variant-numeric:normal;font-variant-east-asian:normal;fill:#f1f1f1;fill-opacity:1;stroke:#000000;stroke-width:0;stroke-dasharray:none;stroke-opacity:1"
         x="320.99448"
         y="116.45686"
         id="text31394"><tspan
           sodipodi:role="line"
           id="tspan31392"
           x="320.99448"
           y="116.45686"
           style="fill:#000000">S</tspan></text>
    </g>
  </g>
</svg>
